<svg xmlns="http://www.w3.org/2000/svg" viewBox="0 0 42.5 42.5"><title>menu02</title><g id="레이어_2" data-name="레이어 2"><g id="menu"><path d="M9.25,18.5h0A9.25,9.25,0,0,1,9.25,0h0a9.25,9.25,0,0,1,0,18.5ZM9.25,2h0a7.26,7.26,0,1,0,5.13,2.13A7.21,7.21,0,0,0,9.25,2Z"/><path d="M33.25,18.5a9.25,9.25,0,1,1,6.54-2.71,9.18,9.18,0,0,1-6.54,2.71Zm0-16.5a7.25,7.25,0,1,0,0,14.5h0a7.25,7.25,0,0,0,0-14.5Z"/><path d="M9.25,42.5h0a9.25,9.25,0,0,1,0-18.5h0a9.25,9.25,0,0,1,0,18.5Zm0-16.5h0a7.25,7.25,0,0,0,0,14.5v0a7.25,7.25,0,0,0,0-14.5Z"/><path d="M33.25,42.5a9.25,9.25,0,1,1,6.54-2.71,9.18,9.18,0,0,1-6.54,2.71Zm0-16.5a7.25,7.25,0,0,0,0,14.5h0a7.25,7.25,0,0,0,0-14.5Z"/></g></g></svg>